/* XPM */
static char *result[] = {
/* columns rows colors chars-per-pixel */
"64 64 46 1 ",
"  c #353A3B",
". c #3F4241",
"X c #4F5253",
"o c #696A6A",
"O c #6E7070",
"+ c #7F8081",
"@ c #858483",
"# c #8D8D8E",
"$ c #9D9B9B",
"% c #A19E9E",
"& c #A29FA0",
"* c #A5A2A3",
"= c #A9A5A6",
"- c #AAA7A8",
"; c #ADABAC",
": c #B1AEAF",
"> c #AFAFB0",
", c #B2AFB0",
"< c #B5B2B3",
"1 c #B8B6B7",
"2 c #B6B7B9",
"3 c #B9B6B8",
"4 c #BCBCBC",
"5 c #C0BEBF",
"6 c #BFBFC0",
"7 c #C0BFC0",
"8 c #C4C3C4",
"9 c #C7C6C8",
"0 c #C8C7C9",
"q c #C7C8C8",
"w c #CCCBCD",
"e c #CFCFD0",
"r c #D0CFD1",
"t c #CFD0D1",
"y c #D3D3D4",
"u c #D8D7D7",
"i c #D7D6D9",
"p c #D8D7D9",
"a c #D7D8DA",
"s c #DBDBDD",
"d c #DFDEE1",
"f c #E0DFE1",
"g c #DFE0E2",
"h c #E2E2E4",
"j c #E6E6E9",
"k c #E9E9EC",
/* pixels */
"w4y<$**8q588q00wrrrrpppsss0ssffppffssrssiiiiyyir7r7777777;=$5777",
"w4y>$**85-,<1357700rwrryuu0ssffspffssrpuiy7i77y777775,=77=*$;777",
"w4y;$%*85;<13557000wrrryppwsssfspffsswpuiryii7r77577,,-77&=$,r77",
"w4y;%%%84-><1357770w0rrpup0ssffppfssprpuyyr77y7775555,-77&&$:775",
"w4y>%**63=:<135577wwwrryrpwssffppffssrpuyrrr7r7755,<,,=77&=&,e73",
"w4y<*-*85=::<115707wwwrrrp0sssfspfssprpyyy7yr7e7555,,,=77&-&<w66",
"w4y<-;=85=::<<15777w0wrruy0sssfspfssprpyyrrr7e77,5,5,,=79--=<w63",
"q4y2;>;85;:<,<157777wwryrpwsssfspfsssruyyy7y77775,,,,,:79-,;3e73",
"w4y3:::85:<<113367790wwryywsssfapffsswyyrww07777111<1<:59>,,4w74",
"w4y5:<<q5<11133577790wrryywasshspffssrpryrwwe777551<11188,<,4w44",
"w4y511197131535577770wwrrywpsffssfssswpyrrw77777531513380<1,7w74",
"w4y5333083555355779990wryywssshspffssryyrwwwe7775545453803438w64",
"w4y5453975555558797000eryywssfhssfssswprrww7w77777775548w3448w54",
"w4u855509577578899000wwrrywssshssfffsrprrrr7wwe777875559w454qw54",
"w4u8775w9578888q0000eerryywpsfjssfffsryyrrwwwr770788887qw555qw64",
"w4yq788w98888q9900wweeryyywssfhssfffswpyyrree7rw0900988ww788ww64",
"w4ywq8qw9999999w0wwwrryyuuwashhsshfdsrpiprrrrwwwww00099wr797wr74",
"w4ywqqwww99w9wwwwwrrryrpuawsddjdsjfdsepipyirrrwww0w0000wr099rw74",
"w4ywwwwwwwwwwwewerrrryppuawsdhhsshffsrspiyrrrrrrrwwwwwwwrwwwrw74",
"w4yewwwwwewwwweerryryyipsswshfhssjhddysppppyyrrrrwrwwrwwrrwwyw54",
"w4yywwywwrrwtttyrrrrpippsswfdhhdajhhdrsspppiyyyrrrrrrrrrywywyw54",
"w4yyyruwwyryryytpypippppsswshhjsshhhfrdspppipyyyyrrrrrrrytytye64",
"q4yuyyuwryyyyyyyiypipppssswdhhhdshghdrdddpppiyyyyyryyryryyyyut64",
"w4yuyuurruyyyyuuipppppsdsswhhhjssjhhdeddpdpppppuppypyppruuyuuw66",
"w4yuuuuttuuuuuuupppppssssfwfjhhdshhhdedsssssaspuuuyuuuutyiuusw54",
"w4uuuudttuuuuuuupppssssfffwfhhjssjhhhyhfsfsssappaaauuuuyuaausw66",
"w4yussstysuuusuuppsssssdffwhhhjsshhhhrffssssssssaaasuasuisssst65",
"w4yfssftysssusssdpsddsddffwhhhjgajhjgyhfhsfsssspasusssuyassssw45",
"w4ydsdfyyssssssfdpssfffdffwhhhhsshghhyhsdshssssssssssssuusgsfe55",
"w5ydfsftyfsssfssddsfsfffhhwhkkksskkjsyjhhsshffsssfsfgsfuuhsgfe46",
"w5yfffhyyfsdffsssddsfdffddwh828su61whrhsfhffffsffsfsssguuhggft66",
"w4yfhfhyyhfffsfddfddffd4<1<4+ Xst .#8<4<<uhfsfhsfsffgggushgfhw48",
"w4ughhhtuhffffddggffggs1**%*$@Osyo@**$**;uhfffffffddgdhuuhhfht46",
"w4tuhhhyyhffffffghffghhhggqgq<4si42whthffhfffhfhffffgghusjhhuq66",
"t4tuhghuuhfhhgfhffffgghhhhwgjjkgakkjhyjhhfhhffffffhhghjushhhtq66",
"t4wuhhhuuhhhfhghhfhghhhhhhthgghsshhhfthhhhhhhhhfhhfhhhhushghyq66",
"t4usgghtuhghghhfhfhhhhhhhhwhjhjgujhhftjfhhhhhhhhhhhhghhuuhgggw4q",
"w4usgfhuyhghhhhhhhhhhhhhhhwhhhjsujhjfujjhhhhhhhhhhhhhdhushfggt4q",
"w4tgffguuhghhhhhhhhhhhhhhhwhhhhssjfhfyfhhhhhhhhhhhfhhdhushfsft4q",
"t4usgggtuhhhhhhhhhhhhhhhhgwhhhjgsjhjftjhhhhhhhhhhhhhhhhuuhfffw66",
"t4ussgguuggghhghhhhhhhhhhhwhhhjsujghhyhhhhhhjhhhhhhhgghusgsggw4q",
"t4usgshtuhgghhhhhhhhhhkhhhwhhhhssjgjgyhhhhjhhhhhhhhggghuuhgsfw4q",
"t4tssgguygghghhhhhhhhhhhhhwhhhjfsjhhgyjhhjhhhhhhhhghhghusgsgsw4q",
"y4uussgtuhgghghhhhhhhhhhhgwhhhjsshhjhyhhhhhhhhhhghhhgggusggsfw4q",
"t4yggsguyffghfhhhhhhhhhhhhwhhhhsajhhgyhhhhhhhhhhhhghggguugsgst4q",
"y4yussgtuhgghhhhhhhhkhhkjhwhhhjgshhhfyhjjjjhjhhhhhhhhghusgsssw4q",
"t4yussguqywyttttytttttytttqhhhjssjhhhwtttttttttttttttwtqsgsssw4q",
"t4ususssssufuussgufsfuffsgghjhjsshhhhfdsguggsgsssgaasssssssssw4q",
"u2yussssggggghhhhhhhjhjhhjhhhhjsajhhhjhjhjhhjhhhhhghggddsssadw68",
"u4yssssgsssggggghhhhhhhhhhhhhhjssjhhhhgghhhhfhhhggggdgdssddaae4q",
"u2uuasssgggghhhhjhhjjjjjjjjhhhjsshhhhjjjjjhhjhhhhhhggggdssaaat4q",
"u4yuaassaaaaaaasssususussughjgjdsjhhhsssssdaddadssuaaauudssaaw68",
"u4yuaagtqtttttttytttyyyyyywghhjsahhhd8ityyyyyttytttttttwidaisw68",
"u2uuaagtyggghhhhhhjjjhjjjhyhhhhdsjhjdejjhjhjhjjhjhjgddguadaasw4q",
"u4yuaagtyggggghhhhhhhhhhhhygjhhssjhhdwjhhhhhhhhdgfgfdsdyaaaaae4q",
"u2yuuastyssggggghhhhhhhhhhyghhjdsjhhdehhhhhhhjhhhgggdddyidaaaw4q",
"t6titddttggdggfghhjhhhhjhjyhhhhdahhhgwhhhhjhhhhhggdddddiiaaiae48",
"d6tiitdttgsggfgghhhhhjhhhhthjhjssjhjdwjhhhhhjhhhgggddddyidayae68",
"y2iiiidwtgssgghghhhjhhhhhhtfhhjssjhhgwhhhhhhhhhhggdddddyisaiaw68",
"y6tiiideygdggghhhhhhhhjhhhyfjhjsshhhgtjhjhhhhhhjgjdddddyaaaiie68",
"i6yyiidtedddgghhhjhhhhhhjhyfhhjsshhhdthhhhhhjjdjggggdddyidiyie48",
"y2yiyidwedddggghhhhhhjhhhhyhjhjssjhjdwhhhjhjddjjjgjddadtiaiiaw6q",
"i6yiiidtyddddghhhhhhhhjhhhyghhhdshhhdtjhghhhjdjdjddddddiiaiiaw48",
"i2yaiydeeddddghhjhhhjhhhhhyfhhjssjhhdwjhjdjjdjgjgjdddddtaaaaae4q"
};
