/* XPM */
static char *c82210ef59804a78a6e2ff04a4821092TUQ0yTUSKiLaFHIt[] = {
/* columns rows colors chars-per-pixel */
"64 64 8 1 ",
"  c None",
". c black",
"X c #031C11",
"o c #343836",
"O c #4A6F5E",
"+ c #F2DC37",
"@ c #37F29F",
"# c #C1C1D1",
/* pixels */
"                                                                ",
"                                                                ",
"                                                                ",
"                                                                ",
"                                                                ",
"                                                                ",
"                                                                ",
"                                                                ",
"                                                                ",
"                                                                ",
"                                                                ",
"                                                                ",
"                        ................                        ",
"                        ................                        ",
"                        ................                        ",
"                        ................                        ",
"                    ....@@@@@@@@@@@@@@@@....                    ",
"                    ....@@@@@@@@@@@@@@@@....                    ",
"                    ....@@@@@@@@@@@@@@@@....                    ",
"                    ....@@@@@@@@@@@@@@@@....                    ",
"                ....@@@@++++@@@@OOOOOOOO@@@@....                ",
"                ....@@@@++++@@@@OOOOOOOO@@@@....                ",
"                ....@@@@++++@@@@OOOOOOOO@@@@....                ",
"                ....@@@@++++@@@@OOOOOOOO@@@@....                ",
"            ....@@@@OOOO@@@@@@@@OOOOOOOOOOOO@@@@....            ",
"            ....@@@@OOOO@@@@@@@@OOOOOOOOOOOO@@@@....            ",
"            ....@@@@OOOO@@@@@@@@OOOOOOOOOOOO@@@@....            ",
"            ....@@@@OOOO@@@@@@@@OOOOOOOOOOOO@@@@....            ",
"            ....@@@@OOOOOOOO++++++++OOOOOOOO@@@@....            ",
"            ....@@@@OOOOOOOO++++++++OOOOOOOO@@@@....            ",
"            ....@@@@OOOOOOOO++++++++OOOOOOOO@@@@....            ",
"            ....@@@@OOOOOOOO++++++++OOOOOOOO@@@@....            ",
"            XXXX++++OOOO++++oooooooo++++OOOO++++XXXX            ",
"            XXXX++++OOOO++++oooooooo++++OOOO++++XXXX            ",
"            XXXX++++OOOO++++oooooooo++++OOOO++++XXXX            ",
"            XXXX++++OOOO++++oooooooo++++OOOO++++XXXX            ",
"            XXXX....++++++++oooooooo++++++++####XXXX            ",
"            XXXX....++++++++oooooooo++++++++####XXXX            ",
"            XXXX....++++++++oooooooo++++++++####XXXX            ",
"            XXXX....++++++++oooooooo++++++++####XXXX            ",
"                XXXX........++++++++........XXXX                ",
"                XXXX........++++++++........XXXX                ",
"                XXXX........++++++++........XXXX                ",
"                XXXX........++++++++........XXXX                ",
"                    XXXX####........####XXXX                    ",
"                    XXXX####........####XXXX                    ",
"                    XXXX####........####XXXX                    ",
"                    XXXX####........####XXXX                    ",
"                        XXXXXXXXXXXXXXXX                        ",
"                        XXXXXXXXXXXXXXXX                        ",
"                        XXXXXXXXXXXXXXXX                        ",
"                        XXXXXXXXXXXXXXXX                        ",
"                                                                ",
"                                                                ",
"                                                                ",
"                                                                ",
"                                                                ",
"                                                                ",
"                                                                ",
"                                                                ",
"                                                                ",
"                                                                ",
"                                                                ",
"                                                                "
};
