/* XPM */
static char *result[] = {
/* columns rows colors chars-per-pixel */
"64 64 5 1 ",
"  c black",
". c gray33",
"X c #00A8A8",
"o c gray66",
"O c gray99",
/* pixels */
"                                                                ",
"oXXXXXXXXXXXXXXXXXXXXXXXXXXXXXXXXXXXXXXXXXXXXXXXXXXXXXXXXXXXXXX.",
"oXXX  .XXXXXXXXXXXXXXXXXXXXXXXXXXXXXXXXXXXXXXXXXXXXXXXXXXX  .XX.",
"oXX Oo .XXXXXXXXXXXXXXXXXXXXXXXXXXXXXXXXXXXXXXXXXXXXXXXXX Oo .X.",
"oXX oo .XXXXXXXXXXXXXXXXXXXXXXXXXXXXXXXXXXXXXXXXXXXXXXXXX oo .X.",
"oXXX  .XXXXXXXXXXXXXXXXXXXXXXXXXXXXXXXXXXXXXXXXXXXXXXXXXXX  .XX.",
"oXXXXXXXXXXX XXX XXX XXX XXX XXX XXX XXX XXX XXX XXX XXXXXXXXXX.",
"oXXXXXXXXXXXXXXXXXXXXXXXXXXXXXXXXXXXXXXXXXXXXXXXXXXXXXXXXXXXXXX.",
"oXXXXXXXXXX..........................................OXXXXXXXXX.",
"oXXXXXXXXXX.                                        oOXXXXXXXXX.",
"oXXX  .XXXX. XXXXXXXXXXXXXXXXXXXXXXXXXXXXXXXXXXXXXXXoOXXXX  .XX.",
"oXX Oo .XXX. XXXXXXXXXXXXXXXXXXXXXXXXXXXXXXXXXXXXXXXoOXXX Oo .X.",
"oXX oo .XXX. XXXXXXXXXXXXXXXXXXXXXXXXXXXXXXXXXXXXXXXoOXXX oo .X.",
"oXXX  .XXXX. XXXXXXXXXXXXXXXXXXXXXXXXXXXXXXXXXXXXXXXoOXXXX  .XX.",
"oXXXXXXXXXX. XXXXXXXXXXXXXXXXXXXXXXXXXXXXXXXXXXXXXXXoOXXXXXXXXX.",
"oXXXXXXXXXX. XXXXXXXXXXXXXXXXXXXXXXXXXXXXXXXXXXXXXXXoOXXXXXXXXX.",
"oXXXXXXXXXX. XXXXXXXXXXXXXXXXXXXXXXXXXXXXXXXXXXXXXXXoOXXXXXXXXX.",
"oXXXXXXXXXX. XXXXXXXXXXXXXXXXXXXXXXXXXXXXXXXXXXXXXXXoOXXXXXXXXX.",
"oXXX  .XXXX. XXXXXXXXXXXXXXXXXXXXXXXXXXXXXXXXXXXXXXXoOXXXX  .XX.",
"oXX Oo .XXX. XXXXXXXXXXXXXXXXXXXXXXXXXXXXXXXXXXXXXXXoOXXX Oo .X.",
"oXX oo .XXX. XXXXXXXXXXXXXXXXXXXXXXXXXXXXXXXXXXXXXXXoOXXX oo .X.",
"oXXX  .XXXX. XXXXXXXXXXXXXXXXXXXXXXXXXXXXXXXXXXXXXXXoOXXXX  .XX.",
"oXXXXXXXXXX. XXXXXXXXXXXXXXXXXXXXXXXXXXXXXXXXXXXXXXXoOXXXXXXXXX.",
"oXXXXXXXXXX. XXXXXXXXXXXXXXXXXXXXXXXXXXXXXXXXXXXXXXXoOXXXXXXXXX.",
"oXXXXXXXXXX. XXXXXXXXXXXXXXXXXXXXXXXXXXXXXXXXXXXXXXXoOXXXXXXXXX.",
"oXXXXXXXXXX. XXXXXXXXXXXXXXXXXXXXXXXXXXXXXXXXXXXXXXXoOXXXXXXXXX.",
"oXXX  .XXXX. XXXXXXXXXXXXXXXXXXXXXXXXXXXXXXXXXXXXXXXoOXXXX  .XX.",
"oXX Oo .XXX. XXXXXXXXXXXXXXXXXXXXXXXXXXXXXXXXXXXXXXXoOXXX Oo .X.",
"oXX oo .XXX. XXXXXXXXXXXXXXXXXXXXXXXXXXXXXXXXXXXXXXXoOXXX oo .X.",
"oXXX  .XXXX. XXXXXXXXXXXXXXXXXXXXXXXXXXXXXXXXXXXXXXXoOXXXX  .XX.",
"oXXXXXXXXXX. XXXXXXXXXXXXXXXXXXXXXXXXXXXXXXXXXXXXXXXoOXXXXXXXXX.",
"oXXXXXXXXXX. XXXXXXXXXXXXXXXXXXXXXXXXXXXXXXXXXXXXXXXoOXXXXXXXXX.",
"oXXXXXXXXXX. XXXXXXXXXXXXXXXXXXXXXXXXXXXXXXXXXXXXXXXoOXXXXXXXXX.",
"oXXXXXXXXXX. XXXXXXXXXXXXXXXXXXXXXXXXXXXXXXXXXXXXXXXoOXXXXXXXXX.",
"oXXX  .XXXX. XXXXXXXXXXXXXXXXXXXXXXXXXXXXXXXXXXXXXXXoOXXXX  .XX.",
"oXX Oo .XXX. XXXXXXXXXXXXXXXXXXXXXXXXXXXXXXXXXXXXXXXoOXXX Oo .X.",
"oXX oo .XXX. XXXXXXXXXXXXXXXXXXXXXXXXXXXXXXXXXXXXXXXoOXXX oo .X.",
"oXXX  .XXXX. XXXXXXXXXXXXXXXXXXXXXXXXXXXXXXXXXXXXXXXoOXXXX  .XX.",
"oXXXXXXXXXX. XXXXXXXXXXXXXXXXXXXXXXXXXXXXXXXXXXXXXXXoOXXXXXXXXX.",
"oXXXXXXXXXX. XXXXXXXXXXXXXXXXXXXXXXXXXXXXXXXXXXXXXXXoOXXXXXXXXX.",
"oXXXXXXXXXX. XXXXXXXXXXXXXXXXXXXXXXXXXXXXXXXXXXXXXXXoOXXXXXXXXX.",
"oXXXXXXXXXX. XXXXXXXXXXXXXXXXXXXXXXXXXXXXXXXXXXXXXXXoOXXXXXXXXX.",
"oXXX  .XXXX. XXXXXXXXXXXXXXXXXXXXXXXXXXXXXXXXXXXXXXXoOXXXX  .XX.",
"oXX Oo .XXX. XXXXXXXXXXXXXXXXXXXXXXXXXXXXXXXXXXXXXXXoOXXX Oo .X.",
"oXX oo .XXX. XXXXXXXXXXXXXXXXXXXXXXXXXXXXXXXXXXXXXXXoOXXX oo .X.",
"oXXX  .XXXX. XXXXXXXXXXXXXXXXXXXXXXXXXXXXXXXXXXXXXXXoOXXXX  .XX.",
"oXXXXXXXXXX. XXXXXXXXXXXXXXXXXXXXXXXXXXXXXXXXXXXXXXXoOXXXXXXXXX.",
"oXXXXXXXXXX. XXXXXXXXXXXXXXXXXXXXXXXXXXXXXXXXXXXXXXXoOXXXXXXXXX.",
"oXXXXXXXXXX. XXXXXXXXXXXXXXXXXXXXXXXXXXXXXXXXXXXXXXXoOXXXXXXXXX.",
"oXXXXXXXXXX. XXXXXXXXXXXXXXXXXXXXXXXXXXXXXXXXXXXXXXXoOXXXXXXXXX.",
"oXXX  .XXXX. XXXXXXXXXXXXXXXXXXXXXXXXXXXXXXXXXXXXXXXoOXXXX  .XX.",
"oXX Oo .XXX. XXXXXXXXXXXXXXXXXXXXXXXXXXXXXXXXXXXXXXXoOXXX Oo .X.",
"oXX oo .XXX. XXXXXXXXXXXXXXXXXXXXXXXXXXXXXXXXXXXXXXXoOXXX oo .X.",
"oXXX  .XXXX. XXXXXXXXXXXXXXXXXXXXXXXXXXXXXXXXXXXXXXXoOXXXX  .XX.",
"oXXXXXXXXXX. ooooooooooooooooooooooooooooooooooooooooOXXXXXXXXX.",
"oXXXXXXXXXX.OOOOOOOOOOOOOOOOOOOOOOOOOOOOOOOOOOOOOOOOOOXXXXXXXXX.",
"oXXXXXXXXXXXXXXXXXXXXXXXXXXXXXXXXXXXXXXXXXXXXXXXXXXXXXXXXXXXXXX.",
"oXXXXXXXXXXX XXX XXX XXX XXX XXX XXX XXX XXX XXX XXX XXXXXXXXXX.",
"oXXX  .XXXXXXXXXXXXXXXXXXXXXXXXXXXXXXXXXXXXXXXXXXXXXXXXXXX  .XX.",
"oXX Oo .XXXXXXXXXXXXXXXXXXXXXXXXXXXXXXXXXXXXXXXXXXXXXXXXX Oo .X.",
"oXX oo .XXXXXXXXXXXXXXXXXXXXXXXXXXXXXXXXXXXXXXXXXXXXXXXXX oo .X.",
"oXXX  .XXXXXXXXXXXXXXXXXXXXXXXXXXXXXXXXXXXXXXXXXXXXXXXXXXX  .XX.",
"oXXXXXXXXXXXXXXXXXXXXXXXXXXXXXXXXXXXXXXXXXXXXXXXXXXXXXXXXXXXXXX.",
"                                                                "
};
