/* XPM */
static char *_be8bcd7d50c4a3ed25ab79a460f56c9QienVJkNuaKfwUV8[] = {
/* columns rows colors chars-per-pixel */
"60 60 3 1 ",
"  c black",
". c #014B01",
"X c green",
/* pixels */
"                                                            ",
"                                                            ",
"                                                            ",
"                                                            ",
"            XXXXXXXXXXXXXXXXXXXXXXXXXXXXXXXXXXXX            ",
"            XXXXXXXXXXXXXXXXXXXXXXXXXXXXXXXXXXXX            ",
"            XXXXXXXXXXXXXXXXXXXXXXXXXXXXXXXXXXXX            ",
"            XXXXXXXXXXXXXXXXXXXXXXXXXXXXXXXXXXXX            ",
"        XXXX                                    XXXX        ",
"        XXXX                                    XXXX        ",
"        XXXX                                    XXXX        ",
"        XXXX                                    XXXX        ",
"    XXXX                                            XXXX    ",
"    XXXX                                            XXXX    ",
"    XXXX                                            XXXX    ",
"    XXXX                                            XXXX    ",
"    XXXX                ........                    XXXX    ",
"    XXXX                ........                    XXXX    ",
"    XXXX                ........                    XXXX    ",
"    XXXX                ........                    XXXX    ",
"    XXXX                    ....                    XXXX    ",
"    XXXX                    ....                    XXXX    ",
"    XXXX                    ....                    XXXX    ",
"    XXXX                    ....                    XXXX    ",
"    XXXX                    ....                    XXXX    ",
"    XXXX                    ....                    XXXX    ",
"    XXXX                    ....                    XXXX    ",
"    XXXX                    ....                    XXXX    ",
"    XXXX                    ....                    XXXX    ",
"    XXXX                    ....                    XXXX    ",
"    XXXX                    ....                    XXXX    ",
"    XXXX                    ....                    XXXX    ",
"    XXXX                    ....                    XXXX    ",
"    XXXX                    ....                    XXXX    ",
"    XXXX                    ....                    XXXX    ",
"    XXXX                    ....                    XXXX    ",
"    XXXX                    ....                    XXXX    ",
"    XXXX                    ....                    XXXX    ",
"    XXXX                    ....                    XXXX    ",
"    XXXX                    ....                    XXXX    ",
"    XXXX                ............                XXXX    ",
"    XXXX                ............                XXXX    ",
"    XXXX                ............                XXXX    ",
"    XXXX                ............                XXXX    ",
"    XXXX                                            XXXX    ",
"    XXXX                                            XXXX    ",
"    XXXX                                            XXXX    ",
"    XXXX                                            XXXX    ",
"        XXXX                                    XXXX        ",
"        XXXX                                    XXXX        ",
"        XXXX                                    XXXX        ",
"        XXXX                                    XXXX        ",
"            XXXXXXXXXXXXXXXXXXXXXXXXXXXXXXXXXXXX            ",
"            XXXXXXXXXXXXXXXXXXXXXXXXXXXXXXXXXXXX            ",
"            XXXXXXXXXXXXXXXXXXXXXXXXXXXXXXXXXXXX            ",
"            XXXXXXXXXXXXXXXXXXXXXXXXXXXXXXXXXXXX            ",
"                                                            ",
"                                                            ",
"                                                            ",
"                                                            "
};
