/* XPM */
static char *result[] = {
/* columns rows colors chars-per-pixel */
"64 64 8 1 ",
"  c black",
". c #010102",
"X c #0F0F13",
"o c #2D110B",
"O c #963319",
"+ c #79799D",
"@ c #BCBCBC",
"# c None",
/* pixels */
"################################################################",
"################################################################",
"################################################################",
"################################################################",
"################################################################",
"################################################################",
"################################################################",
"################################################################",
"################################################################",
"################################################################",
"################################################################",
"################################################################",
"########################                ########################",
"########################                ########################",
"########################                ########################",
"########################                ########################",
"####################    OOOOOOOOOOOOOOOO    ####################",
"####################    OOOOOOOOOOOOOOOO    ####################",
"####################    OOOOOOOOOOOOOOOO    ####################",
"####################    OOOOOOOOOOOOOOOO    ####################",
"################    OOOO@@@@OOOOooooooooOOOO    ################",
"################    OOOO@@@@OOOOooooooooOOOO    ################",
"################    OOOO@@@@OOOOooooooooOOOO    ################",
"################    OOOO@@@@OOOOooooooooOOOO    ################",
"############    OOOOooooOOOOOOOOooooooooooooOOOO    ############",
"############    OOOOooooOOOOOOOOooooooooooooOOOO    ############",
"############    OOOOooooOOOOOOOOooooooooooooOOOO    ############",
"############    OOOOooooOOOOOOOOooooooooooooOOOO    ############",
"############    OOOOoooooooo        ooooooooOOOO    ############",
"############    OOOOoooooooo        ooooooooOOOO    ############",
"############    OOOOoooooooo        ooooooooOOOO    ############",
"############    OOOOoooooooo        ooooooooOOOO    ############",
"############XXXX    oooo    ++++++++    oooo    XXXX############",
"############XXXX    oooo    ++++++++    oooo    XXXX############",
"############XXXX    oooo    ++++++++    oooo    XXXX############",
"############XXXX    oooo    ++++++++    oooo    XXXX############",
"############XXXX@@@@        ++++++++        ++++XXXX############",
"############XXXX@@@@        ++++++++        ++++XXXX############",
"############XXXX@@@@        ++++++++        ++++XXXX############",
"############XXXX@@@@        ++++++++        ++++XXXX############",
"################XXXX@@@@@@@@        @@@@@@@@XXXX################",
"################XXXX@@@@@@@@        @@@@@@@@XXXX################",
"################XXXX@@@@@@@@        @@@@@@@@XXXX################",
"################XXXX@@@@@@@@        @@@@@@@@XXXX################",
"####################XXXX++++@@@@@@@@++++XXXX####################",
"####################XXXX++++@@@@@@@@++++XXXX####################",
"####################XXXX++++@@@@@@@@++++XXXX####################",
"####################XXXX++++@@@@@@@@++++XX..####################",
"########################XXXXXXXXXXXXXXXX########################",
"########################XXXXXXXXXXXXXXXX########################",
"########################XXXXXXXXXXXXXXXX########################",
"########################XXXXXXXXXXXXXXXX########################",
"################################################################",
"################################################################",
"################################################################",
"################################################################",
"################################################################",
"################################################################",
"################################################################",
"################################################################",
"################################################################",
"################################################################",
"################################################################",
"################################################################"
};
