/* XPM */
static char *result[] = {
/* columns rows colors chars-per-pixel */
"64 64 8 1 ",
"  c #1E1E1E",
". c #626279",
"X c #8D0D00",
"o c #C3472F",
"O c #E9927A",
"+ c #E4E4EB",
"@ c white",
"# c None",
/* pixels */
"################################################################",
"################################################################",
"################################################################",
"################################################################",
"################################################################",
"################################################################",
"################################################################",
"################################################################",
"################################################################",
"################################################################",
"################################################################",
"################################################################",
"########################XXXXXXXXXXXXXXXX########################",
"########################XXXXXXXXXXXXXXXX########################",
"########################XXXXXXXXXXXXXXXX########################",
"########################XXXXXXXXXXXXXXXX########################",
"####################XXXXOOOOOOOOOOOOOOOOXXXX####################",
"####################XXXXOOOOOOOOOOOOOOOOXXXX####################",
"####################XXXXOOOOOOOOOOOOOOOOXXXX####################",
"####################XXXXOOOOOOOOOOOOOOOOXXXX####################",
"################XXXXOOOO@@@@OOOOooooooooOOOOXXXX################",
"################XXXXOOOO@@@@OOOOooooooooOOOOXXXX################",
"################XXXXOOOO@@@@OOOOooooooooOOOOXXXX################",
"################XXXXOOOO@@@@OOOOooooooooOOOOXXXX################",
"############XXXXOOOOooooOOOOOOOOooooooooooooOOOOXXXX############",
"############XXXXOOOOooooOOOOOOOOooooooooooooOOOOXXXX############",
"############XXXXOOOOooooOOOOOOOOooooooooooooOOOOXXXX############",
"############XXXXOOOOooooOOOOOOOOooooooooooooOOOOXXXX############",
"############    OOOOoooooooo        ooooooooOOOO    ############",
"############    OOOOoooooooo        ooooooooOOOO    ############",
"############    OOOOoooooooo        ooooooooOOOO    ############",
"############    OOOOoooooooo        ooooooooOOOO    ############",
"############....    oooo    ++++++++    oooo    ....############",
"############....    oooo    ++++++++    oooo    ....############",
"############....    oooo    ++++++++    oooo    ....############",
"############....    oooo    ++++++++    oooo    ....############",
"############....@@@@        ++++++++        ++++....############",
"############....@@@@        ++++++++        ++++....############",
"############....@@@@        ++++++++        ++++....############",
"############....@@@@        ++++++++        ++++....############",
"################....@@@@@@@@        @@@@@@@@....################",
"################....@@@@@@@@        @@@@@@@@....################",
"################....@@@@@@@@        @@@@@@@@....################",
"################....@@@@@@@@        @@@@@@@@....################",
"####################....++++@@@@@@@@++++....####################",
"####################....++++@@@@@@@@++++....####################",
"####################....++++@@@@@@@@++++....####################",
"####################....++++@@@@@@@@++++....####################",
"########################................########################",
"########################................########################",
"########################................########################",
"########################................########################",
"################################################################",
"################################################################",
"################################################################",
"################################################################",
"################################################################",
"################################################################",
"################################################################",
"################################################################",
"################################################################",
"################################################################",
"################################################################",
"################################################################"
};
