/* XPM */
static char *result[] = {
/* columns rows colors chars-per-pixel */
"64 64 8 1 ",
"  c black",
". c #300400",
"X c #782C1D",
"o c #383846",
"O c #DD522C",
"+ c #AFAFC4",
"@ c #E9E9E9",
"# c None",
/* pixels */
"################################################################",
"################################################################",
"################################################################",
"################################################################",
"################################################################",
"################################################################",
"################################################################",
"################################################################",
"################################################################",
"################################################################",
"################################################################",
"################################################################",
"########################................########################",
"########################................########################",
"########################................########################",
"########################................########################",
"####################....OOOOOOOOOOOOOOOO....####################",
"####################....OOOOOOOOOOOOOOOO....####################",
"####################....OOOOOOOOOOOOOOOO....####################",
"####################....OOOOOOOOOOOOOOOO....####################",
"################....OOOO@@@@OOOOXXXXXXXXOOOO....################",
"################....OOOO@@@@OOOOXXXXXXXXOOOO....################",
"################....OOOO@@@@OOOOXXXXXXXXOOOO....################",
"################....OOOO@@@@OOOOXXXXXXXXOOOO....################",
"############....OOOOXXXXOOOOOOOOXXXXXXXXXXXXOOOO....############",
"############....OOOOXXXXOOOOOOOOXXXXXXXXXXXXOOOO....############",
"############....OOOOXXXXOOOOOOOOXXXXXXXXXXXXOOOO....############",
"############....OOOOXXXXOOOOOOOOXXXXXXXXXXXXOOOO....############",
"############    OOOOXXXXXXXX        XXXXXXXXOOOO    ############",
"############    OOOOXXXXXXXX        XXXXXXXXOOOO    ############",
"############    OOOOXXXXXXXX        XXXXXXXXOOOO    ############",
"############    OOOOXXXXXXXX        XXXXXXXXOOOO    ############",
"############oooo    XXXX    ++++++++    XXXX    oooo############",
"############oooo    XXXX    ++++++++    XXXX    oooo############",
"############oooo    XXXX    ++++++++    XXXX    oooo############",
"############oooo    XXXX    ++++++++    XXXX    oooo############",
"############oooo@@@@        ++++++++        ++++oooo############",
"############oooo@@@@        ++++++++        ++++oooo############",
"############oooo@@@@        ++++++++        ++++oooo############",
"############oooo@@@@        ++++++++        ++++oooo############",
"################oooo@@@@@@@@        @@@@@@@@oooo################",
"################oooo@@@@@@@@        @@@@@@@@oooo################",
"################oooo@@@@@@@@        @@@@@@@@oooo################",
"################oooo@@@@@@@@        @@@@@@@@oooo################",
"####################oooo++++@@@@@@@@++++oooo####################",
"####################oooo++++@@@@@@@@++++oooo####################",
"####################oooo++++@@@@@@@@++++oooo####################",
"####################oooo++++@@@@@@@@++++oooo####################",
"########################oooooooooooooooo########################",
"########################oooooooooooooooo########################",
"########################oooooooooooooooo########################",
"########################oooooooooooooooo########################",
"################################################################",
"################################################################",
"################################################################",
"################################################################",
"################################################################",
"################################################################",
"################################################################",
"################################################################",
"################################################################",
"################################################################",
"################################################################",
"################################################################"
};
