/* XPM */
static char *result[] = {
/* columns rows colors chars-per-pixel */
"64 64 8 1 ",
"  c #2D2D2D",
". c #AC1000",
"X c #D15740",
"o c #70708A",
"O c #EDA794",
"+ c #F6F6F8",
"@ c white",
"# c None",
/* pixels */
"################################################################",
"################################################################",
"################################################################",
"################################################################",
"################################################################",
"################################################################",
"################################################################",
"################################################################",
"################################################################",
"################################################################",
"################################################################",
"################################################################",
"########################................########################",
"########################................########################",
"########################................########################",
"########################................########################",
"####################....OOOOOOOOOOOOOOOO....####################",
"####################....OOOOOOOOOOOOOOOO....####################",
"####################....OOOOOOOOOOOOOOOO....####################",
"####################....OOOOOOOOOOOOOOOO....####################",
"################....OOOO@@@@OOOOXXXXXXXXOOOO....################",
"################....OOOO@@@@OOOOXXXXXXXXOOOO....################",
"################....OOOO@@@@OOOOXXXXXXXXOOOO....################",
"################....OOOO@@@@OOOOXXXXXXXXOOOO....################",
"############....OOOOXXXXOOOOOOOOXXXXXXXXXXXXOOOO....############",
"############....OOOOXXXXOOOOOOOOXXXXXXXXXXXXOOOO....############",
"############....OOOOXXXXOOOOOOOOXXXXXXXXXXXXOOOO....############",
"############....OOOOXXXXOOOOOOOOXXXXXXXXXXXXOOOO....############",
"############    OOOOXXXXXXXX        XXXXXXXXOOOO    ############",
"############    OOOOXXXXXXXX        XXXXXXXXOOOO    ############",
"############    OOOOXXXXXXXX        XXXXXXXXOOOO    ############",
"############    OOOOXXXXXXXX        XXXXXXXXOOOO    ############",
"############oooo    XXXX    ++++++++    XXXX    oooo############",
"############oooo    XXXX    ++++++++    XXXX    oooo############",
"############oooo    XXXX    ++++++++    XXXX    oooo############",
"############oooo    XXXX    ++++++++    XXXX    oooo############",
"############oooo@@@@        ++++++++        ++++oooo############",
"############oooo@@@@        ++++++++        ++++oooo############",
"############oooo@@@@        ++++++++        ++++oooo############",
"############oooo@@@@        ++++++++        ++++oooo############",
"################oooo@@@@@@@@        @@@@@@@@oooo################",
"################oooo@@@@@@@@        @@@@@@@@oooo################",
"################oooo@@@@@@@@        @@@@@@@@oooo################",
"################oooo@@@@@@@@        @@@@@@@@oooo################",
"####################oooo++++@@@@@@@@++++oooo####################",
"####################oooo++++@@@@@@@@++++oooo####################",
"####################oooo++++@@@@@@@@++++oooo####################",
"####################oooo++++@@@@@@@@++++oooo####################",
"########################oooooooooooooooo########################",
"########################oooooooooooooooo########################",
"########################oooooooooooooooo########################",
"########################oooooooooooooooo########################",
"################################################################",
"################################################################",
"################################################################",
"################################################################",
"################################################################",
"################################################################",
"################################################################",
"################################################################",
"################################################################",
"################################################################",
"################################################################",
"################################################################"
};
