/* XPM */
static char *result[] = {
/* columns rows colors chars-per-pixel */
"64 64 9 1 ",
"  c black",
". c #110100",
"X c #0F0F13",
"o c #1C1C24",
"O c #461A11",
"+ c #B03C1D",
"@ c #8B8BAA",
"# c #CBCBCB",
"$ c None",
/* pixels */
"$$$$$$$$$$$$$$$$$$$$$$$$$$$$$$$$$$$$$$$$$$$$$$$$$$$$$$$$$$$$$$$$",
"$$$$$$$$$$$$$$$$$$$$$$$$$$$$$$$$$$$$$$$$$$$$$$$$$$$$$$$$$$$$$$$$",
"$$$$$$$$$$$$$$$$$$$$$$$$$$$$$$$$$$$$$$$$$$$$$$$$$$$$$$$$$$$$$$$$",
"$$$$$$$$$$$$$$$$$$$$$$$$$$$$$$$$$$$$$$$$$$$$$$$$$$$$$$$$$$$$$$$$",
"$$$$$$$$$$$$$$$$$$$$$$$$$$$$$$$$$$$$$$$$$$$$$$$$$$$$$$$$$$$$$$$$",
"$$$$$$$$$$$$$$$$$$$$$$$$$$$$$$$$$$$$$$$$$$$$$$$$$$$$$$$$$$$$$$$$",
"$$$$$$$$$$$$$$$$$$$$$$$$$$$$$$$$$$$$$$$$$$$$$$$$$$$$$$$$$$$$$$$$",
"$$$$$$$$$$$$$$$$$$$$$$$$$$$$$$$$$$$$$$$$$$$$$$$$$$$$$$$$$$$$$$$$",
"$$$$$$$$$$$$$$$$$$$$$$$$$$$$$$$$$$$$$$$$$$$$$$$$$$$$$$$$$$$$$$$$",
"$$$$$$$$$$$$$$$$$$$$$$$$$$$$$$$$$$$$$$$$$$$$$$$$$$$$$$$$$$$$$$$$",
"$$$$$$$$$$$$$$$$$$$$$$$$$$$$$$$$$$$$$$$$$$$$$$$$$$$$$$$$$$$$$$$$",
"$$$$$$$$$$$$$$$$$$$$$$$$$$$$$$$$$$$$$$$$$$$$$$$$$$$$$$$$$$$$$$$$",
"$$$$$$$$$$$$$$$$$$$$$$$$                $$$$$$$$$$$$$$$$$$$$$$$$",
"$$$$$$$$$$$$$$$$$$$$$$$$                $$$$$$$$$$$$$$$$$$$$$$$$",
"$$$$$$$$$$$$$$$$$$$$$$$$                $$$$$$$$$$$$$$$$$$$$$$$$",
"$$$$$$$$$$$$$$$$$$$$$$$$................$$$$$$$$$$$$$$$$$$$$$$$$",
"$$$$$$$$$$$$$$$$$$$$    ++++++++++++++++    $$$$$$$$$$$$$$$$$$$$",
"$$$$$$$$$$$$$$$$$$$$    ++++++++++++++++    $$$$$$$$$$$$$$$$$$$$",
"$$$$$$$$$$$$$$$$$$$$    ++++++++++++++++    $$$$$$$$$$$$$$$$$$$$",
"$$$$$$$$$$$$$$$$$$$$    ++++++++++++++++    $$$$$$$$$$$$$$$$$$$$",
"$$$$$$$$$$$$$$$$    ++++####++++OOOOOOOO++++    $$$$$$$$$$$$$$$$",
"$$$$$$$$$$$$$$$$    ++++####++++OOOOOOOO++++    $$$$$$$$$$$$$$$$",
"$$$$$$$$$$$$$$$$    ++++####++++OOOOOOOO++++    $$$$$$$$$$$$$$$$",
"$$$$$$$$$$$$$$$$    ++++####++++OOOOOOOO++++    $$$$$$$$$$$$$$$$",
"$$$$$$$$$$$$    ++++OOOO++++++++OOOOOOOOOOOO++++    $$$$$$$$$$$$",
"$$$$$$$$$$$$    ++++OOOO++++++++OOOOOOOOOOOO++++    $$$$$$$$$$$$",
"$$$$$$$$$$$$    ++++OOOO++++++++OOOOOOOOOOOO++++    $$$$$$$$$$$$",
"$$$$$$$$$$$$    ++++OOOO++++++++OOOOOOOOOOOO++++    $$$$$$$$$$$$",
"$$$$$$$$$$$$    ++++OOOOOOOO        OOOOOOOO++++    $$$$$$$$$$$$",
"$$$$$$$$$$$$    ++++OOOOOOOO        OOOOOOOO++++    $$$$$$$$$$$$",
"$$$$$$$$$$$$    ++++OOOOOOOO        OOOOOOOO++++    $$$$$$$$$$$$",
"$$$$$$$$$$$$    ++++OOOOOOOO        OOOOOOOO++++    $$$$$$$$$$$$",
"$$$$$$$$$$$$oooo    OOOO    @@@@@@@@    OOOO    oooo$$$$$$$$$$$$",
"$$$$$$$$$$$$oooo    OOOO    @@@@@@@@    OOOO    oooo$$$$$$$$$$$$",
"$$$$$$$$$$$$oooo    OOOO    @@@@@@@@    OOOO    oooo$$$$$$$$$$$$",
"$$$$$$$$$$$$oooo    OOOO    @@@@@@@@    OOOO    oooo$$$$$$$$$$$$",
"$$$$$$$$$$$$oooo####        @@@@@@@@        @@@@oooo$$$$$$$$$$$$",
"$$$$$$$$$$$$oooo####        @@@@@@@@        @@@@oooo$$$$$$$$$$$$",
"$$$$$$$$$$$$oooo####        @@@@@@@@        @@@@oooo$$$$$$$$$$$$",
"$$$$$$$$$$$$oooo####        @@@@@@@@        @@@@oooo$$$$$$$$$$$$",
"$$$$$$$$$$$$$$$$oooo########        ########oooo$$$$$$$$$$$$$$$$",
"$$$$$$$$$$$$$$$$oooo########        ########oooo$$$$$$$$$$$$$$$$",
"$$$$$$$$$$$$$$$$oooo########        ########oooo$$$$$$$$$$$$$$$$",
"$$$$$$$$$$$$$$$$oooo########        ########oooo$$$$$$$$$$$$$$$$",
"$$$$$$$$$$$$$$$$$$$$oooo@@@@########@@@@oooo$$$$$$$$$$$$$$$$$$$$",
"$$$$$$$$$$$$$$$$$$$$oooo@@@@########@@@@oooo$$$$$$$$$$$$$$$$$$$$",
"$$$$$$$$$$$$$$$$$$$$oooo@@@@########@@@@oooo$$$$$$$$$$$$$$$$$$$$",
"$$$$$$$$$$$$$$$$$$$$oooo@@@@########@@@@ooXX$$$$$$$$$$$$$$$$$$$$",
"$$$$$$$$$$$$$$$$$$$$$$$$oooooooooooooooo$$$$$$$$$$$$$$$$$$$$$$$$",
"$$$$$$$$$$$$$$$$$$$$$$$$oooooooooooooooo$$$$$$$$$$$$$$$$$$$$$$$$",
"$$$$$$$$$$$$$$$$$$$$$$$$oooooooooooooooo$$$$$$$$$$$$$$$$$$$$$$$$",
"$$$$$$$$$$$$$$$$$$$$$$$$oooooooooooooooo$$$$$$$$$$$$$$$$$$$$$$$$",
"$$$$$$$$$$$$$$$$$$$$$$$$$$$$$$$$$$$$$$$$$$$$$$$$$$$$$$$$$$$$$$$$",
"$$$$$$$$$$$$$$$$$$$$$$$$$$$$$$$$$$$$$$$$$$$$$$$$$$$$$$$$$$$$$$$$",
"$$$$$$$$$$$$$$$$$$$$$$$$$$$$$$$$$$$$$$$$$$$$$$$$$$$$$$$$$$$$$$$$",
"$$$$$$$$$$$$$$$$$$$$$$$$$$$$$$$$$$$$$$$$$$$$$$$$$$$$$$$$$$$$$$$$",
"$$$$$$$$$$$$$$$$$$$$$$$$$$$$$$$$$$$$$$$$$$$$$$$$$$$$$$$$$$$$$$$$",
"$$$$$$$$$$$$$$$$$$$$$$$$$$$$$$$$$$$$$$$$$$$$$$$$$$$$$$$$$$$$$$$$",
"$$$$$$$$$$$$$$$$$$$$$$$$$$$$$$$$$$$$$$$$$$$$$$$$$$$$$$$$$$$$$$$$",
"$$$$$$$$$$$$$$$$$$$$$$$$$$$$$$$$$$$$$$$$$$$$$$$$$$$$$$$$$$$$$$$$",
"$$$$$$$$$$$$$$$$$$$$$$$$$$$$$$$$$$$$$$$$$$$$$$$$$$$$$$$$$$$$$$$$",
"$$$$$$$$$$$$$$$$$$$$$$$$$$$$$$$$$$$$$$$$$$$$$$$$$$$$$$$$$$$$$$$$",
"$$$$$$$$$$$$$$$$$$$$$$$$$$$$$$$$$$$$$$$$$$$$$$$$$$$$$$$$$$$$$$$$",
"$$$$$$$$$$$$$$$$$$$$$$$$$$$$$$$$$$$$$$$$$$$$$$$$$$$$$$$$$$$$$$$$"
};
