/* XPM */
static char *result[] = {
/* columns rows colors chars-per-pixel */
"64 64 9 1 ",
"  c black",
". c #110100",
"X c #1C1C24",
"o c #2A2A35",
"O c #5F2317",
"+ c #CA4521",
"@ c #9D9DB7",
"# c #DADADA",
"$ c None",
/* pixels */
"$$$$$$$$$$$$$$$$$$$$$$$$$$$$$$$$$$$$$$$$$$$$$$$$$$$$$$$$$$$$$$$$",
"$$$$$$$$$$$$$$$$$$$$$$$$$$$$$$$$$$$$$$$$$$$$$$$$$$$$$$$$$$$$$$$$",
"$$$$$$$$$$$$$$$$$$$$$$$$$$$$$$$$$$$$$$$$$$$$$$$$$$$$$$$$$$$$$$$$",
"$$$$$$$$$$$$$$$$$$$$$$$$$$$$$$$$$$$$$$$$$$$$$$$$$$$$$$$$$$$$$$$$",
"$$$$$$$$$$$$$$$$$$$$$$$$$$$$$$$$$$$$$$$$$$$$$$$$$$$$$$$$$$$$$$$$",
"$$$$$$$$$$$$$$$$$$$$$$$$$$$$$$$$$$$$$$$$$$$$$$$$$$$$$$$$$$$$$$$$",
"$$$$$$$$$$$$$$$$$$$$$$$$$$$$$$$$$$$$$$$$$$$$$$$$$$$$$$$$$$$$$$$$",
"$$$$$$$$$$$$$$$$$$$$$$$$$$$$$$$$$$$$$$$$$$$$$$$$$$$$$$$$$$$$$$$$",
"$$$$$$$$$$$$$$$$$$$$$$$$$$$$$$$$$$$$$$$$$$$$$$$$$$$$$$$$$$$$$$$$",
"$$$$$$$$$$$$$$$$$$$$$$$$$$$$$$$$$$$$$$$$$$$$$$$$$$$$$$$$$$$$$$$$",
"$$$$$$$$$$$$$$$$$$$$$$$$$$$$$$$$$$$$$$$$$$$$$$$$$$$$$$$$$$$$$$$$",
"$$$$$$$$$$$$$$$$$$$$$$$$$$$$$$$$$$$$$$$$$$$$$$$$$$$$$$$$$$$$$$$$",
"$$$$$$$$$$$$$$$$$$$$$$$$................$$$$$$$$$$$$$$$$$$$$$$$$",
"$$$$$$$$$$$$$$$$$$$$$$$$................$$$$$$$$$$$$$$$$$$$$$$$$",
"$$$$$$$$$$$$$$$$$$$$$$$$................$$$$$$$$$$$$$$$$$$$$$$$$",
"$$$$$$$$$$$$$$$$$$$$$$$$................$$$$$$$$$$$$$$$$$$$$$$$$",
"$$$$$$$$$$$$$$$$$$$$....++++++++++++++++....$$$$$$$$$$$$$$$$$$$$",
"$$$$$$$$$$$$$$$$$$$$....++++++++++++++++....$$$$$$$$$$$$$$$$$$$$",
"$$$$$$$$$$$$$$$$$$$$....++++++++++++++++....$$$$$$$$$$$$$$$$$$$$",
"$$$$$$$$$$$$$$$$$$$$....++++++++++++++++....$$$$$$$$$$$$$$$$$$$$",
"$$$$$$$$$$$$$$$$....++++####++++OOOOOOOO++++....$$$$$$$$$$$$$$$$",
"$$$$$$$$$$$$$$$$....++++####++++OOOOOOOO++++....$$$$$$$$$$$$$$$$",
"$$$$$$$$$$$$$$$$....++++####++++OOOOOOOO++++....$$$$$$$$$$$$$$$$",
"$$$$$$$$$$$$$$$$....++++####++++OOOOOOOO++++....$$$$$$$$$$$$$$$$",
"$$$$$$$$$$$$....++++OOOO++++++++OOOOOOOOOOOO++++....$$$$$$$$$$$$",
"$$$$$$$$$$$$....++++OOOO++++++++OOOOOOOOOOOO++++....$$$$$$$$$$$$",
"$$$$$$$$$$$$....++++OOOO++++++++OOOOOOOOOOOO++++....$$$$$$$$$$$$",
"$$$$$$$$$$$$....++++OOOO++++++++OOOOOOOOOOOO++++....$$$$$$$$$$$$",
"$$$$$$$$$$$$    ++++OOOOOOOO        OOOOOOOO++++    $$$$$$$$$$$$",
"$$$$$$$$$$$$    ++++OOOOOOOO        OOOOOOOO++++    $$$$$$$$$$$$",
"$$$$$$$$$$$$    ++++OOOOOOOO        OOOOOOOO++++    $$$$$$$$$$$$",
"$$$$$$$$$$$$    ++++OOOOOOOO        OOOOOOOO++++    $$$$$$$$$$$$",
"$$$$$$$$$$$$oooo    OOOO    @@@@@@@@    OOOO    oooo$$$$$$$$$$$$",
"$$$$$$$$$$$$oooo    OOOO    @@@@@@@@    OOOO    oooo$$$$$$$$$$$$",
"$$$$$$$$$$$$oooo    OOOO    @@@@@@@@    OOOO    oooo$$$$$$$$$$$$",
"$$$$$$$$$$$$oooo    OOOO    @@@@@@@@    OOOO    oooo$$$$$$$$$$$$",
"$$$$$$$$$$$$oooo####        @@@@@@@@        @@@@oooo$$$$$$$$$$$$",
"$$$$$$$$$$$$oooo####        @@@@@@@@        @@@@oooo$$$$$$$$$$$$",
"$$$$$$$$$$$$oooo####        @@@@@@@@        @@@@oooo$$$$$$$$$$$$",
"$$$$$$$$$$$$oooo####        @@@@@@@@        @@@@oooo$$$$$$$$$$$$",
"$$$$$$$$$$$$$$$$oooo########        ########oooo$$$$$$$$$$$$$$$$",
"$$$$$$$$$$$$$$$$oooo########        ########oooo$$$$$$$$$$$$$$$$",
"$$$$$$$$$$$$$$$$oooo########        ########oooo$$$$$$$$$$$$$$$$",
"$$$$$$$$$$$$$$$$oooo########        ########oooo$$$$$$$$$$$$$$$$",
"$$$$$$$$$$$$$$$$$$$$oooo@@@@########@@@@oooo$$$$$$$$$$$$$$$$$$$$",
"$$$$$$$$$$$$$$$$$$$$oooo@@@@########@@@@oooo$$$$$$$$$$$$$$$$$$$$",
"$$$$$$$$$$$$$$$$$$$$oooo@@@@########@@@@oooo$$$$$$$$$$$$$$$$$$$$",
"$$$$$$$$$$$$$$$$$$$$oooo@@@@########@@@@ooXX$$$$$$$$$$$$$$$$$$$$",
"$$$$$$$$$$$$$$$$$$$$$$$$oooooooooooooooo$$$$$$$$$$$$$$$$$$$$$$$$",
"$$$$$$$$$$$$$$$$$$$$$$$$oooooooooooooooo$$$$$$$$$$$$$$$$$$$$$$$$",
"$$$$$$$$$$$$$$$$$$$$$$$$oooooooooooooooo$$$$$$$$$$$$$$$$$$$$$$$$",
"$$$$$$$$$$$$$$$$$$$$$$$$oooooooooooooooo$$$$$$$$$$$$$$$$$$$$$$$$",
"$$$$$$$$$$$$$$$$$$$$$$$$$$$$$$$$$$$$$$$$$$$$$$$$$$$$$$$$$$$$$$$$",
"$$$$$$$$$$$$$$$$$$$$$$$$$$$$$$$$$$$$$$$$$$$$$$$$$$$$$$$$$$$$$$$$",
"$$$$$$$$$$$$$$$$$$$$$$$$$$$$$$$$$$$$$$$$$$$$$$$$$$$$$$$$$$$$$$$$",
"$$$$$$$$$$$$$$$$$$$$$$$$$$$$$$$$$$$$$$$$$$$$$$$$$$$$$$$$$$$$$$$$",
"$$$$$$$$$$$$$$$$$$$$$$$$$$$$$$$$$$$$$$$$$$$$$$$$$$$$$$$$$$$$$$$$",
"$$$$$$$$$$$$$$$$$$$$$$$$$$$$$$$$$$$$$$$$$$$$$$$$$$$$$$$$$$$$$$$$",
"$$$$$$$$$$$$$$$$$$$$$$$$$$$$$$$$$$$$$$$$$$$$$$$$$$$$$$$$$$$$$$$$",
"$$$$$$$$$$$$$$$$$$$$$$$$$$$$$$$$$$$$$$$$$$$$$$$$$$$$$$$$$$$$$$$$",
"$$$$$$$$$$$$$$$$$$$$$$$$$$$$$$$$$$$$$$$$$$$$$$$$$$$$$$$$$$$$$$$$",
"$$$$$$$$$$$$$$$$$$$$$$$$$$$$$$$$$$$$$$$$$$$$$$$$$$$$$$$$$$$$$$$$",
"$$$$$$$$$$$$$$$$$$$$$$$$$$$$$$$$$$$$$$$$$$$$$$$$$$$$$$$$$$$$$$$$",
"$$$$$$$$$$$$$$$$$$$$$$$$$$$$$$$$$$$$$$$$$$$$$$$$$$$$$$$$$$$$$$$$"
};
