/* XPM */
static char *result[] = {
/* columns rows colors chars-per-pixel */
"64 64 8 1 ",
"  c black",
". c #4F0700",
"X c #464657",
"o c #913523",
"O c #E16846",
"+ c #C1C1D1",
"@ c #F8F8F8",
"# c None",
/* pixels */
"################################################################",
"################################################################",
"################################################################",
"################################################################",
"################################################################",
"################################################################",
"################################################################",
"################################################################",
"################################################################",
"################################################################",
"################################################################",
"################################################################",
"########################................########################",
"########################................########################",
"########################................########################",
"########################................########################",
"####################....OOOOOOOOOOOOOOOO....####################",
"####################....OOOOOOOOOOOOOOOO....####################",
"####################....OOOOOOOOOOOOOOOO....####################",
"####################....OOOOOOOOOOOOOOOO....####################",
"################....OOOO@@@@OOOOooooooooOOOO....################",
"################....OOOO@@@@OOOOooooooooOOOO....################",
"################....OOOO@@@@OOOOooooooooOOOO....################",
"################....OOOO@@@@OOOOooooooooOOOO....################",
"############....OOOOooooOOOOOOOOooooooooooooOOOO....############",
"############....OOOOooooOOOOOOOOooooooooooooOOOO....############",
"############....OOOOooooOOOOOOOOooooooooooooOOOO....############",
"############....OOOOooooOOOOOOOOooooooooooooOOOO....############",
"############    OOOOoooooooo        ooooooooOOOO    ############",
"############    OOOOoooooooo        ooooooooOOOO    ############",
"############    OOOOoooooooo        ooooooooOOOO    ############",
"############    OOOOoooooooo        ooooooooOOOO    ############",
"############XXXX    oooo    ++++++++    oooo    XXXX############",
"############XXXX    oooo    ++++++++    oooo    XXXX############",
"############XXXX    oooo    ++++++++    oooo    XXXX############",
"############XXXX    oooo    ++++++++    oooo    XXXX############",
"############XXXX@@@@        ++++++++        ++++XXXX############",
"############XXXX@@@@        ++++++++        ++++XXXX############",
"############XXXX@@@@        ++++++++        ++++XXXX############",
"############XXXX@@@@        ++++++++        ++++XXXX############",
"################XXXX@@@@@@@@        @@@@@@@@XXXX################",
"################XXXX@@@@@@@@        @@@@@@@@XXXX################",
"################XXXX@@@@@@@@        @@@@@@@@XXXX################",
"################XXXX@@@@@@@@        @@@@@@@@XXXX################",
"####################XXXX++++@@@@@@@@++++XXXX####################",
"####################XXXX++++@@@@@@@@++++XXXX####################",
"####################XXXX++++@@@@@@@@++++XXXX####################",
"####################XXXX++++@@@@@@@@++++XXXX####################",
"########################XXXXXXXXXXXXXXXX########################",
"########################XXXXXXXXXXXXXXXX########################",
"########################XXXXXXXXXXXXXXXX########################",
"########################XXXXXXXXXXXXXXXX########################",
"################################################################",
"################################################################",
"################################################################",
"################################################################",
"################################################################",
"################################################################",
"################################################################",
"################################################################",
"################################################################",
"################################################################",
"################################################################",
"################################################################"
};
