/* XPM */
static char *result[] = {
/* columns rows colors chars-per-pixel */
"64 64 8 1 ",
"  c gray6",
". c #6E0A00",
"X c #545468",
"o c #AA3E29",
"O c #E57D60",
"+ c #D3D3DE",
"@ c white",
"# c None",
/* pixels */
"################################################################",
"################################################################",
"################################################################",
"################################################################",
"################################################################",
"################################################################",
"################################################################",
"################################################################",
"################################################################",
"################################################################",
"################################################################",
"################################################################",
"########################................########################",
"########################................########################",
"########################................########################",
"########################................########################",
"####################....OOOOOOOOOOOOOOOO....####################",
"####################....OOOOOOOOOOOOOOOO....####################",
"####################....OOOOOOOOOOOOOOOO....####################",
"####################....OOOOOOOOOOOOOOOO....####################",
"################....OOOO@@@@OOOOooooooooOOOO....################",
"################....OOOO@@@@OOOOooooooooOOOO....################",
"################....OOOO@@@@OOOOooooooooOOOO....################",
"################....OOOO@@@@OOOOooooooooOOOO....################",
"############....OOOOooooOOOOOOOOooooooooooooOOOO....############",
"############....OOOOooooOOOOOOOOooooooooooooOOOO....############",
"############....OOOOooooOOOOOOOOooooooooooooOOOO....############",
"############....OOOOooooOOOOOOOOooooooooooooOOOO....############",
"############    OOOOoooooooo        ooooooooOOOO    ############",
"############    OOOOoooooooo        ooooooooOOOO    ############",
"############    OOOOoooooooo        ooooooooOOOO    ############",
"############    OOOOoooooooo        ooooooooOOOO    ############",
"############XXXX    oooo    ++++++++    oooo    XXXX############",
"############XXXX    oooo    ++++++++    oooo    XXXX############",
"############XXXX    oooo    ++++++++    oooo    XXXX############",
"############XXXX    oooo    ++++++++    oooo    XXXX############",
"############XXXX@@@@        ++++++++        ++++XXXX############",
"############XXXX@@@@        ++++++++        ++++XXXX############",
"############XXXX@@@@        ++++++++        ++++XXXX############",
"############XXXX@@@@        ++++++++        ++++XXXX############",
"################XXXX@@@@@@@@        @@@@@@@@XXXX################",
"################XXXX@@@@@@@@        @@@@@@@@XXXX################",
"################XXXX@@@@@@@@        @@@@@@@@XXXX################",
"################XXXX@@@@@@@@        @@@@@@@@XXXX################",
"####################XXXX++++@@@@@@@@++++XXXX####################",
"####################XXXX++++@@@@@@@@++++XXXX####################",
"####################XXXX++++@@@@@@@@++++XXXX####################",
"####################XXXX++++@@@@@@@@++++XXXX####################",
"########################XXXXXXXXXXXXXXXX########################",
"########################XXXXXXXXXXXXXXXX########################",
"########################XXXXXXXXXXXXXXXX########################",
"########################XXXXXXXXXXXXXXXX########################",
"################################################################",
"################################################################",
"################################################################",
"################################################################",
"################################################################",
"################################################################",
"################################################################",
"################################################################",
"################################################################",
"################################################################",
"################################################################",
"################################################################"
};
