/* XPM */
static char *result[] = {
/* columns rows colors chars-per-pixel */
"64 64 7 1 ",
"  c black",
". c #010102",
"X c #140805",
"o c #622111",
"O c #5B5B7D",
"+ c gray62",
"@ c None",
/* pixels */
"@@@@@@@@@@@@@@@@@@@@@@@@@@@@@@@@@@@@@@@@@@@@@@@@@@@@@@@@@@@@@@@@",
"@@@@@@@@@@@@@@@@@@@@@@@@@@@@@@@@@@@@@@@@@@@@@@@@@@@@@@@@@@@@@@@@",
"@@@@@@@@@@@@@@@@@@@@@@@@@@@@@@@@@@@@@@@@@@@@@@@@@@@@@@@@@@@@@@@@",
"@@@@@@@@@@@@@@@@@@@@@@@@@@@@@@@@@@@@@@@@@@@@@@@@@@@@@@@@@@@@@@@@",
"@@@@@@@@@@@@@@@@@@@@@@@@@@@@@@@@@@@@@@@@@@@@@@@@@@@@@@@@@@@@@@@@",
"@@@@@@@@@@@@@@@@@@@@@@@@@@@@@@@@@@@@@@@@@@@@@@@@@@@@@@@@@@@@@@@@",
"@@@@@@@@@@@@@@@@@@@@@@@@@@@@@@@@@@@@@@@@@@@@@@@@@@@@@@@@@@@@@@@@",
"@@@@@@@@@@@@@@@@@@@@@@@@@@@@@@@@@@@@@@@@@@@@@@@@@@@@@@@@@@@@@@@@",
"@@@@@@@@@@@@@@@@@@@@@@@@@@@@@@@@@@@@@@@@@@@@@@@@@@@@@@@@@@@@@@@@",
"@@@@@@@@@@@@@@@@@@@@@@@@@@@@@@@@@@@@@@@@@@@@@@@@@@@@@@@@@@@@@@@@",
"@@@@@@@@@@@@@@@@@@@@@@@@@@@@@@@@@@@@@@@@@@@@@@@@@@@@@@@@@@@@@@@@",
"@@@@@@@@@@@@@@@@@@@@@@@@@@@@@@@@@@@@@@@@@@@@@@@@@@@@@@@@@@@@@@@@",
"@@@@@@@@@@@@@@@@@@@@@@@@                @@@@@@@@@@@@@@@@@@@@@@@@",
"@@@@@@@@@@@@@@@@@@@@@@@@                @@@@@@@@@@@@@@@@@@@@@@@@",
"@@@@@@@@@@@@@@@@@@@@@@@@                @@@@@@@@@@@@@@@@@@@@@@@@",
"@@@@@@@@@@@@@@@@@@@@@@@@                @@@@@@@@@@@@@@@@@@@@@@@@",
"@@@@@@@@@@@@@@@@@@@@    oooooooooooooooo    @@@@@@@@@@@@@@@@@@@@",
"@@@@@@@@@@@@@@@@@@@@    oooooooooooooooo    @@@@@@@@@@@@@@@@@@@@",
"@@@@@@@@@@@@@@@@@@@@    oooooooooooooooo    @@@@@@@@@@@@@@@@@@@@",
"@@@@@@@@@@@@@@@@@@@@    oooooooooooooooo    @@@@@@@@@@@@@@@@@@@@",
"@@@@@@@@@@@@@@@@    oooo++++oooo        oooo    @@@@@@@@@@@@@@@@",
"@@@@@@@@@@@@@@@@    oooo++++oooo        oooo    @@@@@@@@@@@@@@@@",
"@@@@@@@@@@@@@@@@    oooo++++oooo        oooo    @@@@@@@@@@@@@@@@",
"@@@@@@@@@@@@@@@@    oooo++++oooo        oooo    @@@@@@@@@@@@@@@@",
"@@@@@@@@@@@@    oooo    oooooooo            oooo    @@@@@@@@@@@@",
"@@@@@@@@@@@@    oooo    oooooooo            oooo    @@@@@@@@@@@@",
"@@@@@@@@@@@@    oooo    oooooooo            oooo    @@@@@@@@@@@@",
"@@@@@@@@@@@@    oooo    oooooooo            oooo    @@@@@@@@@@@@",
"@@@@@@@@@@@@    oooo                        oooo    @@@@@@@@@@@@",
"@@@@@@@@@@@@    oooo                        oooo    @@@@@@@@@@@@",
"@@@@@@@@@@@@    oooo                        oooo    @@@@@@@@@@@@",
"@@@@@@@@@@@@    oooo                        oooo    @@@@@@@@@@@@",
"@@@@@@@@@@@@....    XXXX    OOOOOOOO    XXXX    ....@@@@@@@@@@@@",
"@@@@@@@@@@@@....    XXXX    OOOOOOOO    XXXX    ....@@@@@@@@@@@@",
"@@@@@@@@@@@@....    XXXX    OOOOOOOO    XXXX    ....@@@@@@@@@@@@",
"@@@@@@@@@@@@....    XXXX    OOOOOOOO    XXXX    ....@@@@@@@@@@@@",
"@@@@@@@@@@@@..  ++++        OOOOOOOO        OOOO  ..@@@@@@@@@@@@",
"@@@@@@@@@@@@..  ++++        OOOOOOOO        OOOO  ..@@@@@@@@@@@@",
"@@@@@@@@@@@@..  ++++        OOOOOOOO        OOOO  ..@@@@@@@@@@@@",
"@@@@@@@@@@@@..  ++++        OOOOOOOO        OOOO  ..@@@@@@@@@@@@",
"@@@@@@@@@@@@@@@@..  ++++++++        ++++++++   .@@@@@@@@@@@@@@@@",
"@@@@@@@@@@@@@@@@..  ++++++++        ++++++++   .@@@@@@@@@@@@@@@@",
"@@@@@@@@@@@@@@@@..  ++++++++        ++++++++   .@@@@@@@@@@@@@@@@",
"@@@@@@@@@@@@@@@@..  ++++++++        ++++++++   .@@@@@@@@@@@@@@@@",
"@@@@@@@@@@@@@@@@@@@@..  OOOO++++++++OOOO    @@@@@@@@@@@@@@@@@@@@",
"@@@@@@@@@@@@@@@@@@@@..  OOOO++++++++OOOO    @@@@@@@@@@@@@@@@@@@@",
"@@@@@@@@@@@@@@@@@@@@..  OOOO++++++++OOOO    @@@@@@@@@@@@@@@@@@@@",
"@@@@@@@@@@@@@@@@@@@@..  OOOO++++++++OOOO    @@@@@@@@@@@@@@@@@@@@",
"@@@@@@@@@@@@@@@@@@@@@@@@................@@@@@@@@@@@@@@@@@@@@@@@@",
"@@@@@@@@@@@@@@@@@@@@@@@@................@@@@@@@@@@@@@@@@@@@@@@@@",
"@@@@@@@@@@@@@@@@@@@@@@@@................@@@@@@@@@@@@@@@@@@@@@@@@",
"@@@@@@@@@@@@@@@@@@@@@@@@................@@@@@@@@@@@@@@@@@@@@@@@@",
"@@@@@@@@@@@@@@@@@@@@@@@@@@@@@@@@@@@@@@@@@@@@@@@@@@@@@@@@@@@@@@@@",
"@@@@@@@@@@@@@@@@@@@@@@@@@@@@@@@@@@@@@@@@@@@@@@@@@@@@@@@@@@@@@@@@",
"@@@@@@@@@@@@@@@@@@@@@@@@@@@@@@@@@@@@@@@@@@@@@@@@@@@@@@@@@@@@@@@@",
"@@@@@@@@@@@@@@@@@@@@@@@@@@@@@@@@@@@@@@@@@@@@@@@@@@@@@@@@@@@@@@@@",
"@@@@@@@@@@@@@@@@@@@@@@@@@@@@@@@@@@@@@@@@@@@@@@@@@@@@@@@@@@@@@@@@",
"@@@@@@@@@@@@@@@@@@@@@@@@@@@@@@@@@@@@@@@@@@@@@@@@@@@@@@@@@@@@@@@@",
"@@@@@@@@@@@@@@@@@@@@@@@@@@@@@@@@@@@@@@@@@@@@@@@@@@@@@@@@@@@@@@@@",
"@@@@@@@@@@@@@@@@@@@@@@@@@@@@@@@@@@@@@@@@@@@@@@@@@@@@@@@@@@@@@@@@",
"@@@@@@@@@@@@@@@@@@@@@@@@@@@@@@@@@@@@@@@@@@@@@@@@@@@@@@@@@@@@@@@@",
"@@@@@@@@@@@@@@@@@@@@@@@@@@@@@@@@@@@@@@@@@@@@@@@@@@@@@@@@@@@@@@@@",
"@@@@@@@@@@@@@@@@@@@@@@@@@@@@@@@@@@@@@@@@@@@@@@@@@@@@@@@@@@@@@@@@",
"@@@@@@@@@@@@@@@@@@@@@@@@@@@@@@@@@@@@@@@@@@@@@@@@@@@@@@@@@@@@@@@@"
};
