/* XPM */
static char *result[] = {
/* columns rows colors chars-per-pixel */
"64 64 7 1 ",
"  c black",
". c #010102",
"X c #140805",
"o c #7C2A15",
"O c #68688F",
"+ c gray68",
"@ c None",
/* pixels */
"@@@@@@@@@@@@@@@@@@@@@@@@@@@@@@@@@@@@@@@@@@@@@@@@@@@@@@@@@@@@@@@@",
"@@@@@@@@@@@@@@@@@@@@@@@@@@@@@@@@@@@@@@@@@@@@@@@@@@@@@@@@@@@@@@@@",
"@@@@@@@@@@@@@@@@@@@@@@@@@@@@@@@@@@@@@@@@@@@@@@@@@@@@@@@@@@@@@@@@",
"@@@@@@@@@@@@@@@@@@@@@@@@@@@@@@@@@@@@@@@@@@@@@@@@@@@@@@@@@@@@@@@@",
"@@@@@@@@@@@@@@@@@@@@@@@@@@@@@@@@@@@@@@@@@@@@@@@@@@@@@@@@@@@@@@@@",
"@@@@@@@@@@@@@@@@@@@@@@@@@@@@@@@@@@@@@@@@@@@@@@@@@@@@@@@@@@@@@@@@",
"@@@@@@@@@@@@@@@@@@@@@@@@@@@@@@@@@@@@@@@@@@@@@@@@@@@@@@@@@@@@@@@@",
"@@@@@@@@@@@@@@@@@@@@@@@@@@@@@@@@@@@@@@@@@@@@@@@@@@@@@@@@@@@@@@@@",
"@@@@@@@@@@@@@@@@@@@@@@@@@@@@@@@@@@@@@@@@@@@@@@@@@@@@@@@@@@@@@@@@",
"@@@@@@@@@@@@@@@@@@@@@@@@@@@@@@@@@@@@@@@@@@@@@@@@@@@@@@@@@@@@@@@@",
"@@@@@@@@@@@@@@@@@@@@@@@@@@@@@@@@@@@@@@@@@@@@@@@@@@@@@@@@@@@@@@@@",
"@@@@@@@@@@@@@@@@@@@@@@@@@@@@@@@@@@@@@@@@@@@@@@@@@@@@@@@@@@@@@@@@",
"@@@@@@@@@@@@@@@@@@@@@@@@                @@@@@@@@@@@@@@@@@@@@@@@@",
"@@@@@@@@@@@@@@@@@@@@@@@@                @@@@@@@@@@@@@@@@@@@@@@@@",
"@@@@@@@@@@@@@@@@@@@@@@@@                @@@@@@@@@@@@@@@@@@@@@@@@",
"@@@@@@@@@@@@@@@@@@@@@@@@                @@@@@@@@@@@@@@@@@@@@@@@@",
"@@@@@@@@@@@@@@@@@@@@    oooooooooooooooo    @@@@@@@@@@@@@@@@@@@@",
"@@@@@@@@@@@@@@@@@@@@    oooooooooooooooo    @@@@@@@@@@@@@@@@@@@@",
"@@@@@@@@@@@@@@@@@@@@    oooooooooooooooo    @@@@@@@@@@@@@@@@@@@@",
"@@@@@@@@@@@@@@@@@@@@    oooooooooooooooo    @@@@@@@@@@@@@@@@@@@@",
"@@@@@@@@@@@@@@@@    oooo++++ooooXXXXXXXXoooo    @@@@@@@@@@@@@@@@",
"@@@@@@@@@@@@@@@@    oooo++++ooooXXXXXXXXoooo    @@@@@@@@@@@@@@@@",
"@@@@@@@@@@@@@@@@    oooo++++ooooXXXXXXXXoooo    @@@@@@@@@@@@@@@@",
"@@@@@@@@@@@@@@@@    oooo++++ooooXXXXXXXXoooo    @@@@@@@@@@@@@@@@",
"@@@@@@@@@@@@    ooooXXXXooooooooXXXXXXXXXXXXoooo    @@@@@@@@@@@@",
"@@@@@@@@@@@@    ooooXXXXooooooooXXXXXXXXXXXXoooo    @@@@@@@@@@@@",
"@@@@@@@@@@@@    ooooXXXXooooooooXXXXXXXXXXXXoooo    @@@@@@@@@@@@",
"@@@@@@@@@@@@    ooooXXXXooooooooXXXXXXXXXXXXoooo    @@@@@@@@@@@@",
"@@@@@@@@@@@@    ooooXXXXXXXX        XXXXXXXXoooo    @@@@@@@@@@@@",
"@@@@@@@@@@@@    ooooXXXXXXXX        XXXXXXXXoooo    @@@@@@@@@@@@",
"@@@@@@@@@@@@    ooooXXXXXXXX        XXXXXXXXoooo    @@@@@@@@@@@@",
"@@@@@@@@@@@@    ooooXXXXXXXX        XXXXXXXXoooo    @@@@@@@@@@@@",
"@@@@@@@@@@@@....    XXXX    OOOOOOOO    XXXX    ....@@@@@@@@@@@@",
"@@@@@@@@@@@@....    XXXX    OOOOOOOO    XXXX    ....@@@@@@@@@@@@",
"@@@@@@@@@@@@....    XXXX    OOOOOOOO    XXXX    ....@@@@@@@@@@@@",
"@@@@@@@@@@@@....    XXXX    OOOOOOOO    XXXX    ....@@@@@@@@@@@@",
"@@@@@@@@@@@@....++++        OOOOOOOO        OOOO....@@@@@@@@@@@@",
"@@@@@@@@@@@@....++++        OOOOOOOO        OOOO....@@@@@@@@@@@@",
"@@@@@@@@@@@@....++++        OOOOOOOO        OOOO....@@@@@@@@@@@@",
"@@@@@@@@@@@@....++++        OOOOOOOO        OOOO....@@@@@@@@@@@@",
"@@@@@@@@@@@@@@@@....++++++++        ++++++++....@@@@@@@@@@@@@@@@",
"@@@@@@@@@@@@@@@@....++++++++        ++++++++....@@@@@@@@@@@@@@@@",
"@@@@@@@@@@@@@@@@....++++++++        ++++++++....@@@@@@@@@@@@@@@@",
"@@@@@@@@@@@@@@@@....++++++++        ++++++++....@@@@@@@@@@@@@@@@",
"@@@@@@@@@@@@@@@@@@@@....OOOO++++++++OOOO....@@@@@@@@@@@@@@@@@@@@",
"@@@@@@@@@@@@@@@@@@@@....OOOO++++++++OOOO....@@@@@@@@@@@@@@@@@@@@",
"@@@@@@@@@@@@@@@@@@@@....OOOO++++++++OOOO....@@@@@@@@@@@@@@@@@@@@",
"@@@@@@@@@@@@@@@@@@@@....OOOO++++++++OOOO..  @@@@@@@@@@@@@@@@@@@@",
"@@@@@@@@@@@@@@@@@@@@@@@@................@@@@@@@@@@@@@@@@@@@@@@@@",
"@@@@@@@@@@@@@@@@@@@@@@@@................@@@@@@@@@@@@@@@@@@@@@@@@",
"@@@@@@@@@@@@@@@@@@@@@@@@................@@@@@@@@@@@@@@@@@@@@@@@@",
"@@@@@@@@@@@@@@@@@@@@@@@@................@@@@@@@@@@@@@@@@@@@@@@@@",
"@@@@@@@@@@@@@@@@@@@@@@@@@@@@@@@@@@@@@@@@@@@@@@@@@@@@@@@@@@@@@@@@",
"@@@@@@@@@@@@@@@@@@@@@@@@@@@@@@@@@@@@@@@@@@@@@@@@@@@@@@@@@@@@@@@@",
"@@@@@@@@@@@@@@@@@@@@@@@@@@@@@@@@@@@@@@@@@@@@@@@@@@@@@@@@@@@@@@@@",
"@@@@@@@@@@@@@@@@@@@@@@@@@@@@@@@@@@@@@@@@@@@@@@@@@@@@@@@@@@@@@@@@",
"@@@@@@@@@@@@@@@@@@@@@@@@@@@@@@@@@@@@@@@@@@@@@@@@@@@@@@@@@@@@@@@@",
"@@@@@@@@@@@@@@@@@@@@@@@@@@@@@@@@@@@@@@@@@@@@@@@@@@@@@@@@@@@@@@@@",
"@@@@@@@@@@@@@@@@@@@@@@@@@@@@@@@@@@@@@@@@@@@@@@@@@@@@@@@@@@@@@@@@",
"@@@@@@@@@@@@@@@@@@@@@@@@@@@@@@@@@@@@@@@@@@@@@@@@@@@@@@@@@@@@@@@@",
"@@@@@@@@@@@@@@@@@@@@@@@@@@@@@@@@@@@@@@@@@@@@@@@@@@@@@@@@@@@@@@@@",
"@@@@@@@@@@@@@@@@@@@@@@@@@@@@@@@@@@@@@@@@@@@@@@@@@@@@@@@@@@@@@@@@",
"@@@@@@@@@@@@@@@@@@@@@@@@@@@@@@@@@@@@@@@@@@@@@@@@@@@@@@@@@@@@@@@@",
"@@@@@@@@@@@@@@@@@@@@@@@@@@@@@@@@@@@@@@@@@@@@@@@@@@@@@@@@@@@@@@@@"
};
